{
	"asset":{
		"generator":"Khronos glTF Blender I/O v4.1.63",
		"version":"2.0"
	},
	"scene":0,
	"scenes":[
		{
			"name":"Scene",
			"nodes":[
				0,
				1
			]
		}
	],
	"nodes":[
		{
			"mesh":0,
			"name":"body"
		},
		{
			"mesh":1,
			"name":"beak",
			"translation":[
				0,
				0.2217014580965042,
				-0.020003139972686768
			]
		}
	],
	"materials":[
		{
			"doubleSided":true,
			"name":"Material.002",
			"pbrMetallicRoughness":{
				"baseColorFactor":[
					0.0004377441364340484,
					0,
					0.0004389904788695276,
					1
				],
				"metallicFactor":0,
				"roughnessFactor":0.4000000059604645
			}
		},
		{
			"doubleSided":true,
			"name":"Material.003",
			"pbrMetallicRoughness":{
				"baseColorFactor":[
					0.007880202494561672,
					0.007880202494561672,
					0.007880202494561672,
					1
				],
				"metallicFactor":0,
				"roughnessFactor":0.4291338622570038
			}
		},
		{
			"doubleSided":true,
			"name":"Material.005",
			"pbrMetallicRoughness":{}
		},
		{
			"doubleSided":true,
			"name":"Material.006",
			"pbrMetallicRoughness":{
				"baseColorFactor":[
					0.15192458033561707,
					0.041289426386356354,
					0.01637432910501957,
					1
				],
				"metallicFactor":0,
				"roughnessFactor":0.5
			}
		},
		{
			"doubleSided":true,
			"name":"Material.004",
			"pbrMetallicRoughness":{
				"baseColorFactor":[
					0.8004403114318848,
					0.2777491807937622,
					0.5236467123031616,
					1
				],
				"metallicFactor":0,
				"roughnessFactor":0.5
			}
		}
	],
	"meshes":[
		{
			"name":"Cube",
			"primitives":[
				{
					"attributes":{
						"POSITION":0,
						"NORMAL":1,
						"TEXCOORD_0":2,
						"TEXCOORD_1":3
					},
					"indices":4,
					"material":0
				},
				{
					"attributes":{
						"POSITION":5,
						"NORMAL":6,
						"TEXCOORD_0":7,
						"TEXCOORD_1":8
					},
					"indices":9,
					"material":1
				},
				{
					"attributes":{
						"POSITION":10,
						"NORMAL":11,
						"TEXCOORD_0":12,
						"TEXCOORD_1":13
					},
					"indices":14,
					"material":2
				},
				{
					"attributes":{
						"POSITION":15,
						"NORMAL":16,
						"TEXCOORD_0":17,
						"TEXCOORD_1":18
					},
					"indices":19,
					"material":3
				}
			]
		},
		{
			"name":"Cube.001",
			"primitives":[
				{
					"attributes":{
						"POSITION":20,
						"NORMAL":21,
						"TEXCOORD_0":22
					},
					"indices":23,
					"material":1
				},
				{
					"attributes":{
						"POSITION":24,
						"NORMAL":25,
						"TEXCOORD_0":26
					},
					"indices":27,
					"material":4
				}
			]
		}
	],
	"accessors":[
		{
			"bufferView":0,
			"componentType":5126,
			"count":569,
			"max":[
				2.583343029022217,
				2.834239959716797,
				1.9451268911361694
			],
			"min":[
				-2.583343029022217,
				-0.9954783320426941,
				-1.9274600744247437
			],
			"type":"VEC3"
		},
		{
			"bufferView":1,
			"componentType":5126,
			"count":569,
			"type":"VEC3"
		},
		{
			"bufferView":2,
			"componentType":5126,
			"count":569,
			"type":"VEC2"
		},
		{
			"bufferView":3,
			"componentType":5126,
			"count":569,
			"type":"VEC2"
		},
		{
			"bufferView":4,
			"componentType":5123,
			"count":2904,
			"type":"SCALAR"
		},
		{
			"bufferView":5,
			"componentType":5126,
			"count":280,
			"max":[
				0.9698487520217896,
				-0.7786526679992676,
				0.7737337946891785
			],
			"min":[
				-0.9698487520217896,
				-1.4025261402130127,
				-0.3826380968093872
			],
			"type":"VEC3"
		},
		{
			"bufferView":6,
			"componentType":5126,
			"count":280,
			"type":"VEC3"
		},
		{
			"bufferView":7,
			"componentType":5126,
			"count":280,
			"type":"VEC2"
		},
		{
			"bufferView":8,
			"componentType":5126,
			"count":280,
			"type":"VEC2"
		},
		{
			"bufferView":9,
			"componentType":5123,
			"count":1608,
			"type":"SCALAR"
		},
		{
			"bufferView":10,
			"componentType":5126,
			"count":262,
			"max":[
				0.7362964749336243,
				2.232682228088379,
				1.6409797668457031
			],
			"min":[
				-0.740926206111908,
				1.9017179012298584,
				1.4241126775741577
			],
			"type":"VEC3"
		},
		{
			"bufferView":11,
			"componentType":5126,
			"count":262,
			"type":"VEC3"
		},
		{
			"bufferView":12,
			"componentType":5126,
			"count":262,
			"type":"VEC2"
		},
		{
			"bufferView":13,
			"componentType":5126,
			"count":262,
			"type":"VEC2"
		},
		{
			"bufferView":14,
			"componentType":5123,
			"count":960,
			"type":"SCALAR"
		},
		{
			"bufferView":15,
			"componentType":5126,
			"count":922,
			"max":[
				0.7666029930114746,
				2.3439371585845947,
				1.6551613807678223
			],
			"min":[
				-0.7712327837944031,
				1.7482174634933472,
				1.1708439588546753
			],
			"type":"VEC3"
		},
		{
			"bufferView":16,
			"componentType":5126,
			"count":922,
			"type":"VEC3"
		},
		{
			"bufferView":17,
			"componentType":5126,
			"count":922,
			"type":"VEC2"
		},
		{
			"bufferView":18,
			"componentType":5126,
			"count":922,
			"type":"VEC2"
		},
		{
			"bufferView":19,
			"componentType":5123,
			"count":4800,
			"type":"SCALAR"
		},
		{
			"bufferView":20,
			"componentType":5126,
			"count":104,
			"max":[
				0.3848190903663635,
				2.61653208732605,
				2.9713053703308105
			],
			"min":[
				-0.3848190903663635,
				0.6886088252067566,
				0.9341669082641602
			],
			"type":"VEC3"
		},
		{
			"bufferView":21,
			"componentType":5126,
			"count":104,
			"type":"VEC3"
		},
		{
			"bufferView":22,
			"componentType":5126,
			"count":104,
			"type":"VEC2"
		},
		{
			"bufferView":23,
			"componentType":5123,
			"count":600,
			"type":"SCALAR"
		},
		{
			"bufferView":24,
			"componentType":5126,
			"count":40,
			"max":[
				0.18561773002147675,
				1.5974512100219727,
				1.9842545986175537
			],
			"min":[
				-0.18561773002147675,
				0.9895211458206177,
				1.5579313039779663
			],
			"type":"VEC3"
		},
		{
			"bufferView":25,
			"componentType":5126,
			"count":40,
			"type":"VEC3"
		},
		{
			"bufferView":26,
			"componentType":5126,
			"count":40,
			"type":"VEC2"
		},
		{
			"bufferView":27,
			"componentType":5123,
			"count":228,
			"type":"SCALAR"
		}
	],
	"bufferViews":[
		{
			"buffer":0,
			"byteLength":6828,
			"byteOffset":0,
			"target":34962
		},
		{
			"buffer":0,
			"byteLength":6828,
			"byteOffset":6828,
			"target":34962
		},
		{
			"buffer":0,
			"byteLength":4552,
			"byteOffset":13656,
			"target":34962
		},
		{
			"buffer":0,
			"byteLength":4552,
			"byteOffset":18208,
			"target":34962
		},
		{
			"buffer":0,
			"byteLength":5808,
			"byteOffset":22760,
			"target":34963
		},
		{
			"buffer":0,
			"byteLength":3360,
			"byteOffset":28568,
			"target":34962
		},
		{
			"buffer":0,
			"byteLength":3360,
			"byteOffset":31928,
			"target":34962
		},
		{
			"buffer":0,
			"byteLength":2240,
			"byteOffset":35288,
			"target":34962
		},
		{
			"buffer":0,
			"byteLength":2240,
			"byteOffset":37528,
			"target":34962
		},
		{
			"buffer":0,
			"byteLength":3216,
			"byteOffset":39768,
			"target":34963
		},
		{
			"buffer":0,
			"byteLength":3144,
			"byteOffset":42984,
			"target":34962
		},
		{
			"buffer":0,
			"byteLength":3144,
			"byteOffset":46128,
			"target":34962
		},
		{
			"buffer":0,
			"byteLength":2096,
			"byteOffset":49272,
			"target":34962
		},
		{
			"buffer":0,
			"byteLength":2096,
			"byteOffset":51368,
			"target":34962
		},
		{
			"buffer":0,
			"byteLength":1920,
			"byteOffset":53464,
			"target":34963
		},
		{
			"buffer":0,
			"byteLength":11064,
			"byteOffset":55384,
			"target":34962
		},
		{
			"buffer":0,
			"byteLength":11064,
			"byteOffset":66448,
			"target":34962
		},
		{
			"buffer":0,
			"byteLength":7376,
			"byteOffset":77512,
			"target":34962
		},
		{
			"buffer":0,
			"byteLength":7376,
			"byteOffset":84888,
			"target":34962
		},
		{
			"buffer":0,
			"byteLength":9600,
			"byteOffset":92264,
			"target":34963
		},
		{
			"buffer":0,
			"byteLength":1248,
			"byteOffset":101864,
			"target":34962
		},
		{
			"buffer":0,
			"byteLength":1248,
			"byteOffset":103112,
			"target":34962
		},
		{
			"buffer":0,
			"byteLength":832,
			"byteOffset":104360,
			"target":34962
		},
		{
			"buffer":0,
			"byteLength":1200,
			"byteOffset":105192,
			"target":34963
		},
		{
			"buffer":0,
			"byteLength":480,
			"byteOffset":106392,
			"target":34962
		},
		{
			"buffer":0,
			"byteLength":480,
			"byteOffset":106872,
			"target":34962
		},
		{
			"buffer":0,
			"byteLength":320,
			"byteOffset":107352,
			"target":34962
		},
		{
			"buffer":0,
			"byteLength":456,
			"byteOffset":107672,
			"target":34963
		}
	],
	"buffers":[
		{
			"byteLength":108128,
			"uri":"Crow_rig.bin"
		}
	]
}
