{
	"asset":{
		"generator":"Khronos glTF Blender I/O v4.1.63",
		"version":"2.0"
	},
	"extensionsUsed":[
		"KHR_materials_unlit"
	],
	"scene":0,
	"scenes":[
		{
			"name":"Scene",
			"nodes":[
				1,
				2
			]
		}
	],
	"nodes":[
		{
			"name":"RootNode"
		},
		{
			"children":[
				0
			],
			"name":"f76931ad58124c77a6dab011b126c026.fbx",
			"rotation":[
				0.70710688829422,
				0,
				0,
				0.7071066498756409
			]
		},
		{
			"mesh":0,
			"name":"Bolita fuego_Material #25_0",
			"scale":[
				0.01600000075995922,
				0.017999999225139618,
				0.01600000075995922
			],
			"translation":[
				-0.2199999988079071,
				-1.5099999904632568,
				-0.38999998569488525
			]
		}
	],
	"materials":[
		{
			"alphaMode":"BLEND",
			"doubleSided":true,
			"extensions":{
				"KHR_materials_unlit":{}
			},
			"name":"Material_25",
			"pbrMetallicRoughness":{
				"baseColorFactor":[
					1,
					1,
					1,
					0.8614710569381714
				],
				"baseColorTexture":{
					"index":0
				},
				"metallicFactor":0,
				"roughnessFactor":0.9
			}
		}
	],
	"meshes":[
		{
			"name":"Bolita fuego_Material #25_0",
			"primitives":[
				{
					"attributes":{
						"POSITION":0,
						"NORMAL":1,
						"TEXCOORD_0":2
					},
					"indices":3,
					"material":0
				}
			]
		}
	],
	"textures":[
		{
			"sampler":0,
			"source":0
		}
	],
	"images":[
		{
			"mimeType":"image/png",
			"name":"Material_25_baseColor",
			"uri":"Material_25_baseColor.png"
		}
	],
	"accessors":[
		{
			"bufferView":0,
			"componentType":5126,
			"count":910,
			"max":[
				45.064884185791016,
				114.02794647216797,
				54.88663864135742
			],
			"min":[
				-17.76165199279785,
				55.04431915283203,
				-7.064276218414307
			],
			"type":"VEC3"
		},
		{
			"bufferView":1,
			"componentType":5126,
			"count":910,
			"type":"VEC3"
		},
		{
			"bufferView":2,
			"componentType":5126,
			"count":910,
			"type":"VEC2"
		},
		{
			"bufferView":3,
			"componentType":5123,
			"count":4800,
			"type":"SCALAR"
		}
	],
	"bufferViews":[
		{
			"buffer":0,
			"byteLength":10920,
			"byteOffset":0,
			"target":34962
		},
		{
			"buffer":0,
			"byteLength":10920,
			"byteOffset":10920,
			"target":34962
		},
		{
			"buffer":0,
			"byteLength":7280,
			"byteOffset":21840,
			"target":34962
		},
		{
			"buffer":0,
			"byteLength":9600,
			"byteOffset":29120,
			"target":34963
		}
	],
	"samplers":[
		{
			"magFilter":9729,
			"minFilter":9987
		}
	],
	"buffers":[
		{
			"byteLength":38720,
			"uri":"fireball.bin"
		}
	]
}
