{
	"asset":{
		"generator":"Khronos glTF Blender I/O v4.1.63",
		"version":"2.0"
	},
	"extensionsUsed":[
		"KHR_materials_specular"
	],
	"scene":0,
	"scenes":[
		{
			"name":"Scene",
			"nodes":[
				3,
				7,
				11,
				15,
				19,
				23,
				27,
				31,
				35,
				39,
				43,
				47,
				51,
				55,
				59,
				63,
				67,
				71,
				75,
				79,
				83,
				87,
				91,
				95,
				99,
				103
			]
		}
	],
	"nodes":[
		{
			"mesh":0,
			"name":"Plane.003_Material.004_0",
			"rotation":[
				0.7071068286895752,
				0,
				0,
				0.7071068286895752
			],
			"scale":[
				0.4300000071525574,
				0.4999999403953552,
				1
			],
			"translation":[
				0,
				-0.429999977350235,
				0
			]
		},
		{
			"children":[
				0
			],
			"name":"Plane.003",
			"rotation":[
				1,
				0,
				0,
				0
			],
			"scale":[
				116.62348175048828,
				116.76495361328125,
				100.16496276855469
			]
		},
		{
			"children":[
				1
			],
			"name":"RootNode",
			"rotation":[
				1,
				0,
				0,
				0
			]
		},
		{
			"children":[
				2
			],
			"name":"3b10cdb3970242c2a7740deef92936e8.fbx",
			"rotation":[
				1,
				0,
				0,
				0
			],
			"scale":[
				0.009999999776482582,
				0.009999999776482582,
				0.009999999776482582
			]
		},
		{
			"mesh":1,
			"name":"Plane.003_Material.004_0.001",
			"rotation":[
				0.7071068286895752,
				0,
				0,
				0.7071068286895752
			],
			"scale":[
				0.4300000071525574,
				0.4999999403953552,
				1
			],
			"translation":[
				0,
				-0.429999977350235,
				0
			]
		},
		{
			"children":[
				4
			],
			"name":"Plane.001",
			"rotation":[
				1,
				0,
				0,
				0
			],
			"scale":[
				116.62348175048828,
				116.76495361328125,
				100.16496276855469
			]
		},
		{
			"children":[
				5
			],
			"name":"RootNode.001",
			"rotation":[
				1,
				0,
				0,
				0
			]
		},
		{
			"children":[
				6
			],
			"name":"3b10cdb3970242c2a7740deef92936e8.fbx.001",
			"rotation":[
				1,
				0,
				0,
				0
			],
			"scale":[
				0.009999999776482582,
				0.009999999776482582,
				0.009999999776482582
			],
			"translation":[
				1,
				0,
				-1
			]
		},
		{
			"mesh":2,
			"name":"Plane.003_Material.004_0.002",
			"rotation":[
				0.7071068286895752,
				0,
				0,
				0.7071068286895752
			],
			"scale":[
				0.4300000071525574,
				0.4999999403953552,
				1
			],
			"translation":[
				0,
				-0.429999977350235,
				0
			]
		},
		{
			"children":[
				8
			],
			"name":"Plane.004",
			"rotation":[
				1,
				0,
				0,
				0
			],
			"scale":[
				116.62348175048828,
				116.76495361328125,
				100.16496276855469
			]
		},
		{
			"children":[
				9
			],
			"name":"RootNode.002",
			"rotation":[
				1,
				0,
				0,
				0
			]
		},
		{
			"children":[
				10
			],
			"name":"3b10cdb3970242c2a7740deef92936e8.fbx.002",
			"rotation":[
				1,
				0,
				0,
				0
			],
			"scale":[
				0.009999999776482582,
				0.009999999776482582,
				0.009999999776482582
			],
			"translation":[
				0,
				0,
				-1
			]
		},
		{
			"mesh":3,
			"name":"Plane.003_Material.004_0.003",
			"rotation":[
				0.7071068286895752,
				0,
				0,
				0.7071068286895752
			],
			"scale":[
				0.4300000071525574,
				0.4999999403953552,
				1
			],
			"translation":[
				0,
				-0.429999977350235,
				0
			]
		},
		{
			"children":[
				12
			],
			"name":"Plane.002",
			"rotation":[
				1,
				0,
				0,
				0
			],
			"scale":[
				116.62348175048828,
				116.76495361328125,
				100.16496276855469
			]
		},
		{
			"children":[
				13
			],
			"name":"RootNode.003",
			"rotation":[
				1,
				0,
				0,
				0
			]
		},
		{
			"children":[
				14
			],
			"name":"3b10cdb3970242c2a7740deef92936e8.fbx.003",
			"rotation":[
				1,
				0,
				0,
				0
			],
			"scale":[
				0.009999999776482582,
				0.009999999776482582,
				0.009999999776482582
			],
			"translation":[
				1,
				0,
				0
			]
		},
		{
			"mesh":4,
			"name":"Plane.003_Material.004_0.004",
			"rotation":[
				0.7071068286895752,
				0,
				0,
				0.7071068286895752
			],
			"scale":[
				0.4300000071525574,
				0.4999999403953552,
				1
			],
			"translation":[
				0,
				-0.429999977350235,
				0
			]
		},
		{
			"children":[
				16
			],
			"name":"Plane.005",
			"rotation":[
				1,
				0,
				0,
				0
			],
			"scale":[
				116.62348175048828,
				116.76495361328125,
				100.16496276855469
			]
		},
		{
			"children":[
				17
			],
			"name":"RootNode.004",
			"rotation":[
				1,
				0,
				0,
				0
			]
		},
		{
			"children":[
				18
			],
			"name":"3b10cdb3970242c2a7740deef92936e8.fbx.004",
			"rotation":[
				1,
				0,
				0,
				0
			],
			"scale":[
				0.009999999776482582,
				0.009999999776482582,
				0.009999999776482582
			],
			"translation":[
				-1,
				0,
				0
			]
		},
		{
			"mesh":5,
			"name":"Plane.003_Material.004_0.005",
			"rotation":[
				0.7071068286895752,
				0,
				0,
				0.7071068286895752
			],
			"scale":[
				0.4300000071525574,
				0.4999999403953552,
				1
			],
			"translation":[
				0,
				-0.429999977350235,
				0
			]
		},
		{
			"children":[
				20
			],
			"name":"Plane.006",
			"rotation":[
				1,
				0,
				0,
				0
			],
			"scale":[
				116.62348175048828,
				116.76495361328125,
				100.16496276855469
			]
		},
		{
			"children":[
				21
			],
			"name":"RootNode.005",
			"rotation":[
				1,
				0,
				0,
				0
			]
		},
		{
			"children":[
				22
			],
			"name":"3b10cdb3970242c2a7740deef92936e8.fbx.005",
			"rotation":[
				1,
				0,
				0,
				0
			],
			"scale":[
				0.009999999776482582,
				0.009999999776482582,
				0.009999999776482582
			],
			"translation":[
				0,
				0,
				-1
			]
		},
		{
			"mesh":6,
			"name":"Plane.003_Material.004_0.006",
			"rotation":[
				0.7071068286895752,
				0,
				0,
				0.7071068286895752
			],
			"scale":[
				0.4300000071525574,
				0.4999999403953552,
				1
			],
			"translation":[
				0,
				-0.429999977350235,
				0
			]
		},
		{
			"children":[
				24
			],
			"name":"Plane.007",
			"rotation":[
				1,
				0,
				0,
				0
			],
			"scale":[
				116.62348175048828,
				116.76495361328125,
				100.16496276855469
			]
		},
		{
			"children":[
				25
			],
			"name":"RootNode.006",
			"rotation":[
				1,
				0,
				0,
				0
			]
		},
		{
			"children":[
				26
			],
			"name":"3b10cdb3970242c2a7740deef92936e8.fbx.006",
			"rotation":[
				1,
				0,
				0,
				0
			],
			"scale":[
				0.009999999776482582,
				0.009999999776482582,
				0.009999999776482582
			],
			"translation":[
				-1,
				0,
				-1
			]
		},
		{
			"mesh":7,
			"name":"Plane.003_Material.004_0.007",
			"rotation":[
				0.7071068286895752,
				0,
				0,
				0.7071068286895752
			],
			"scale":[
				0.4300000071525574,
				0.4999999403953552,
				1
			],
			"translation":[
				0,
				-0.429999977350235,
				-1
			]
		},
		{
			"children":[
				28
			],
			"name":"Plane.008",
			"rotation":[
				1,
				0,
				0,
				0
			],
			"scale":[
				116.62348175048828,
				116.76495361328125,
				100.16496276855469
			]
		},
		{
			"children":[
				29
			],
			"name":"RootNode.007",
			"rotation":[
				1,
				0,
				0,
				0
			]
		},
		{
			"children":[
				30
			],
			"name":"3b10cdb3970242c2a7740deef92936e8.fbx.007",
			"rotation":[
				1,
				0,
				0,
				0
			],
			"scale":[
				0.009999999776482582,
				0.009999999776482582,
				0.009999999776482582
			],
			"translation":[
				-1,
				0,
				1
			]
		},
		{
			"mesh":8,
			"name":"Plane.003_Material.004_0.008",
			"rotation":[
				0.7071068286895752,
				0,
				0,
				0.7071068286895752
			],
			"scale":[
				0.4300000071525574,
				0.4999999403953552,
				1
			],
			"translation":[
				0,
				-0.429999977350235,
				-2
			]
		},
		{
			"children":[
				32
			],
			"name":"Plane.009",
			"rotation":[
				1,
				0,
				0,
				0
			],
			"scale":[
				116.62348175048828,
				116.76495361328125,
				100.16496276855469
			]
		},
		{
			"children":[
				33
			],
			"name":"RootNode.008",
			"rotation":[
				1,
				0,
				0,
				0
			]
		},
		{
			"children":[
				34
			],
			"name":"3b10cdb3970242c2a7740deef92936e8.fbx.008",
			"rotation":[
				1,
				0,
				0,
				0
			],
			"scale":[
				0.009999999776482582,
				0.009999999776482582,
				0.009999999776482582
			]
		},
		{
			"mesh":9,
			"name":"Plane.003_Material.004_0.009",
			"rotation":[
				0.7071068286895752,
				0,
				0,
				0.7071068286895752
			],
			"scale":[
				0.4300000071525574,
				0.4999999403953552,
				1
			],
			"translation":[
				0,
				-0.429999977350235,
				-1
			]
		},
		{
			"children":[
				36
			],
			"name":"Plane.010",
			"rotation":[
				1,
				0,
				0,
				0
			],
			"scale":[
				116.62348175048828,
				116.76495361328125,
				100.16496276855469
			]
		},
		{
			"children":[
				37
			],
			"name":"RootNode.009",
			"rotation":[
				1,
				0,
				0,
				0
			]
		},
		{
			"children":[
				38
			],
			"name":"3b10cdb3970242c2a7740deef92936e8.fbx.009",
			"rotation":[
				1,
				0,
				0,
				0
			],
			"scale":[
				0.009999999776482582,
				0.009999999776482582,
				0.009999999776482582
			],
			"translation":[
				1,
				0,
				1
			]
		},
		{
			"mesh":10,
			"name":"Plane.003_Material.004_0.010",
			"rotation":[
				0.7071068286895752,
				0,
				0,
				0.7071068286895752
			],
			"scale":[
				0.4300000071525574,
				0.4999999403953552,
				1
			],
			"translation":[
				0,
				-0.429999977350235,
				-1
			]
		},
		{
			"children":[
				40
			],
			"name":"Plane.011",
			"rotation":[
				1,
				0,
				0,
				0
			],
			"scale":[
				116.62348175048828,
				116.76495361328125,
				100.16496276855469
			]
		},
		{
			"children":[
				41
			],
			"name":"RootNode.010",
			"rotation":[
				1,
				0,
				0,
				0
			]
		},
		{
			"children":[
				42
			],
			"name":"3b10cdb3970242c2a7740deef92936e8.fbx.010",
			"rotation":[
				1,
				0,
				0,
				0
			],
			"scale":[
				0.009999999776482582,
				0.009999999776482582,
				0.009999999776482582
			]
		},
		{
			"mesh":11,
			"name":"Plane.003_Material.004_0.011",
			"rotation":[
				0.7071068286895752,
				0,
				0,
				0.7071068286895752
			],
			"scale":[
				0.4300000071525574,
				0.4999999403953552,
				1
			],
			"translation":[
				0,
				-0.429999977350235,
				0
			]
		},
		{
			"children":[
				44
			],
			"name":"Plane.012",
			"rotation":[
				1,
				0,
				0,
				0
			],
			"scale":[
				116.62348175048828,
				116.76495361328125,
				100.16496276855469
			]
		},
		{
			"children":[
				45
			],
			"name":"RootNode.011",
			"rotation":[
				1,
				0,
				0,
				0
			]
		},
		{
			"children":[
				46
			],
			"name":"3b10cdb3970242c2a7740deef92936e8.fbx.011",
			"rotation":[
				1,
				0,
				0,
				0
			],
			"scale":[
				0.009999999776482582,
				0.009999999776482582,
				0.009999999776482582
			],
			"translation":[
				1,
				0,
				1
			]
		},
		{
			"mesh":12,
			"name":"Plane.003_Material.004_0.012",
			"rotation":[
				0.7071068286895752,
				0,
				0,
				0.7071068286895752
			],
			"scale":[
				0.4300000071525574,
				0.4999999403953552,
				1
			],
			"translation":[
				0,
				-0.429999977350235,
				0
			]
		},
		{
			"children":[
				48
			],
			"name":"Plane.013",
			"rotation":[
				1,
				0,
				0,
				0
			],
			"scale":[
				116.62348175048828,
				116.76495361328125,
				100.16496276855469
			]
		},
		{
			"children":[
				49
			],
			"name":"RootNode.012",
			"rotation":[
				1,
				0,
				0,
				0
			]
		},
		{
			"children":[
				50
			],
			"name":"3b10cdb3970242c2a7740deef92936e8.fbx.012",
			"rotation":[
				1,
				0,
				0,
				0
			],
			"scale":[
				0.009999999776482582,
				0.009999999776482582,
				0.009999999776482582
			],
			"translation":[
				-1,
				0,
				1
			]
		},
		{
			"mesh":13,
			"name":"Plane.003_Material.004_0.013",
			"rotation":[
				0.7071068286895752,
				0,
				0,
				0.7071068286895752
			],
			"scale":[
				0.4300000071525574,
				0.4999999403953552,
				1
			],
			"translation":[
				0,
				-0.429999977350235,
				0
			]
		},
		{
			"children":[
				52
			],
			"name":"Plane.014",
			"rotation":[
				1,
				0,
				0,
				0
			],
			"scale":[
				116.62348175048828,
				116.76495361328125,
				100.16496276855469
			]
		},
		{
			"children":[
				53
			],
			"name":"RootNode.013",
			"rotation":[
				1,
				0,
				0,
				0
			]
		},
		{
			"children":[
				54
			],
			"name":"3b10cdb3970242c2a7740deef92936e8.fbx.013",
			"rotation":[
				1,
				0,
				0,
				0
			],
			"scale":[
				0.009999999776482582,
				0.009999999776482582,
				0.009999999776482582
			],
			"translation":[
				-1,
				0,
				-2
			]
		},
		{
			"mesh":14,
			"name":"Plane.003_Material.004_0.014",
			"rotation":[
				0.7071068286895752,
				0,
				0,
				0.7071068286895752
			],
			"scale":[
				0.4300000071525574,
				0.4999999403953552,
				1
			],
			"translation":[
				0,
				-0.429999977350235,
				0
			]
		},
		{
			"children":[
				56
			],
			"name":"Plane.015",
			"rotation":[
				1,
				0,
				0,
				0
			],
			"scale":[
				116.62348175048828,
				116.76495361328125,
				100.16496276855469
			]
		},
		{
			"children":[
				57
			],
			"name":"RootNode.014",
			"rotation":[
				1,
				0,
				0,
				0
			]
		},
		{
			"children":[
				58
			],
			"name":"3b10cdb3970242c2a7740deef92936e8.fbx.014",
			"rotation":[
				1,
				0,
				0,
				0
			],
			"scale":[
				0.009999999776482582,
				0.009999999776482582,
				0.009999999776482582
			],
			"translation":[
				0,
				0,
				-2
			]
		},
		{
			"mesh":15,
			"name":"Plane.003_Material.004_0.015",
			"rotation":[
				0.7071068286895752,
				0,
				0,
				0.7071068286895752
			],
			"scale":[
				0.4300000071525574,
				0.4999999403953552,
				1
			],
			"translation":[
				0,
				-0.429999977350235,
				0
			]
		},
		{
			"children":[
				60
			],
			"name":"Plane.016",
			"rotation":[
				1,
				0,
				0,
				0
			],
			"scale":[
				116.62348175048828,
				116.76495361328125,
				100.16496276855469
			]
		},
		{
			"children":[
				61
			],
			"name":"RootNode.015",
			"rotation":[
				1,
				0,
				0,
				0
			]
		},
		{
			"children":[
				62
			],
			"name":"3b10cdb3970242c2a7740deef92936e8.fbx.015",
			"rotation":[
				1,
				0,
				0,
				0
			],
			"scale":[
				0.009999999776482582,
				0.009999999776482582,
				0.009999999776482582
			],
			"translation":[
				1,
				0,
				-2
			]
		},
		{
			"mesh":16,
			"name":"Plane.003_Material.004_0.016",
			"rotation":[
				0.7071068286895752,
				0,
				0,
				0.7071068286895752
			],
			"scale":[
				0.4300000071525574,
				0.4999999403953552,
				1
			],
			"translation":[
				0,
				-0.429999977350235,
				-1
			]
		},
		{
			"children":[
				64
			],
			"name":"Plane.017",
			"rotation":[
				1,
				0,
				0,
				0
			],
			"scale":[
				116.62348175048828,
				116.76495361328125,
				100.16496276855469
			]
		},
		{
			"children":[
				65
			],
			"name":"RootNode.016",
			"rotation":[
				1,
				0,
				0,
				0
			]
		},
		{
			"children":[
				66
			],
			"name":"3b10cdb3970242c2a7740deef92936e8.fbx.016",
			"rotation":[
				1,
				0,
				0,
				0
			],
			"scale":[
				0.009999999776482582,
				0.009999999776482582,
				0.009999999776482582
			],
			"translation":[
				2,
				0,
				1
			]
		},
		{
			"mesh":17,
			"name":"Plane.003_Material.004_0.017",
			"rotation":[
				0.7071068286895752,
				0,
				0,
				0.7071068286895752
			],
			"scale":[
				0.4300000071525574,
				0.4999999403953552,
				1
			],
			"translation":[
				0,
				-0.429999977350235,
				0
			]
		},
		{
			"children":[
				68
			],
			"name":"Plane.018",
			"rotation":[
				1,
				0,
				0,
				0
			],
			"scale":[
				116.62348175048828,
				116.76495361328125,
				100.16496276855469
			]
		},
		{
			"children":[
				69
			],
			"name":"RootNode.017",
			"rotation":[
				1,
				0,
				0,
				0
			]
		},
		{
			"children":[
				70
			],
			"name":"3b10cdb3970242c2a7740deef92936e8.fbx.017",
			"rotation":[
				1,
				0,
				0,
				0
			],
			"scale":[
				0.009999999776482582,
				0.009999999776482582,
				0.009999999776482582
			],
			"translation":[
				2,
				0,
				1
			]
		},
		{
			"mesh":18,
			"name":"Plane.003_Material.004_0.018",
			"rotation":[
				0.7071068286895752,
				0,
				0,
				0.7071068286895752
			],
			"scale":[
				0.4300000071525574,
				0.4999999403953552,
				1
			],
			"translation":[
				0,
				-0.429999977350235,
				0
			]
		},
		{
			"children":[
				72
			],
			"name":"Plane.019",
			"rotation":[
				1,
				0,
				0,
				0
			],
			"scale":[
				116.62348175048828,
				116.76495361328125,
				100.16496276855469
			]
		},
		{
			"children":[
				73
			],
			"name":"RootNode.018",
			"rotation":[
				1,
				0,
				0,
				0
			]
		},
		{
			"children":[
				74
			],
			"name":"3b10cdb3970242c2a7740deef92936e8.fbx.018",
			"rotation":[
				1,
				0,
				0,
				0
			],
			"scale":[
				0.009999999776482582,
				0.009999999776482582,
				0.009999999776482582
			],
			"translation":[
				2,
				0,
				0
			]
		},
		{
			"mesh":19,
			"name":"Plane.003_Material.004_0.019",
			"rotation":[
				0.7071068286895752,
				0,
				0,
				0.7071068286895752
			],
			"scale":[
				0.4300000071525574,
				0.4999999403953552,
				1
			],
			"translation":[
				0,
				-0.429999977350235,
				0
			]
		},
		{
			"children":[
				76
			],
			"name":"Plane.020",
			"rotation":[
				1,
				0,
				0,
				0
			],
			"scale":[
				116.62348175048828,
				116.76495361328125,
				100.16496276855469
			]
		},
		{
			"children":[
				77
			],
			"name":"RootNode.019",
			"rotation":[
				1,
				0,
				0,
				0
			]
		},
		{
			"children":[
				78
			],
			"name":"3b10cdb3970242c2a7740deef92936e8.fbx.019",
			"rotation":[
				1,
				0,
				0,
				0
			],
			"scale":[
				0.009999999776482582,
				0.009999999776482582,
				0.009999999776482582
			],
			"translation":[
				2,
				0,
				-1
			]
		},
		{
			"mesh":20,
			"name":"Plane.003_Material.004_0.020",
			"rotation":[
				0.7071068286895752,
				0,
				0,
				0.7071068286895752
			],
			"scale":[
				0.4300000071525574,
				0.4999999403953552,
				1
			],
			"translation":[
				0,
				-0.429999977350235,
				0
			]
		},
		{
			"children":[
				80
			],
			"name":"Plane.021",
			"rotation":[
				1,
				0,
				0,
				0
			],
			"scale":[
				116.62348175048828,
				116.76495361328125,
				100.16496276855469
			]
		},
		{
			"children":[
				81
			],
			"name":"RootNode.020",
			"rotation":[
				1,
				0,
				0,
				0
			]
		},
		{
			"children":[
				82
			],
			"name":"3b10cdb3970242c2a7740deef92936e8.fbx.020",
			"rotation":[
				1,
				0,
				0,
				0
			],
			"scale":[
				0.009999999776482582,
				0.009999999776482582,
				0.009999999776482582
			],
			"translation":[
				2,
				0,
				-2
			]
		},
		{
			"mesh":21,
			"name":"Plane.003_Material.004_0.021",
			"rotation":[
				0.7071068286895752,
				0,
				0,
				0.7071068286895752
			],
			"scale":[
				0.4300000071525574,
				0.4999999403953552,
				1
			],
			"translation":[
				0,
				-0.429999977350235,
				0
			]
		},
		{
			"children":[
				84
			],
			"name":"Plane.022",
			"rotation":[
				1,
				0,
				0,
				0
			],
			"scale":[
				116.62348175048828,
				116.76495361328125,
				100.16496276855469
			]
		},
		{
			"children":[
				85
			],
			"name":"RootNode.021",
			"rotation":[
				1,
				0,
				0,
				0
			]
		},
		{
			"children":[
				86
			],
			"name":"3b10cdb3970242c2a7740deef92936e8.fbx.021",
			"rotation":[
				1,
				0,
				0,
				0
			],
			"scale":[
				0.009999999776482582,
				0.009999999776482582,
				0.009999999776482582
			],
			"translation":[
				-2,
				0,
				-2
			]
		},
		{
			"mesh":22,
			"name":"Plane.003_Material.004_0.022",
			"rotation":[
				0.7071068286895752,
				0,
				0,
				0.7071068286895752
			],
			"scale":[
				0.4300000071525574,
				0.4999999403953552,
				1
			],
			"translation":[
				0,
				-0.429999977350235,
				0
			]
		},
		{
			"children":[
				88
			],
			"name":"Plane.023",
			"rotation":[
				1,
				0,
				0,
				0
			],
			"scale":[
				116.62348175048828,
				116.76495361328125,
				100.16496276855469
			]
		},
		{
			"children":[
				89
			],
			"name":"RootNode.022",
			"rotation":[
				1,
				0,
				0,
				0
			]
		},
		{
			"children":[
				90
			],
			"name":"3b10cdb3970242c2a7740deef92936e8.fbx.022",
			"rotation":[
				1,
				0,
				0,
				0
			],
			"scale":[
				0.009999999776482582,
				0.009999999776482582,
				0.009999999776482582
			],
			"translation":[
				-2,
				0,
				-1
			]
		},
		{
			"mesh":23,
			"name":"Plane.003_Material.004_0.023",
			"rotation":[
				0.7071068286895752,
				0,
				0,
				0.7071068286895752
			],
			"scale":[
				0.4300000071525574,
				0.4999999403953552,
				1
			],
			"translation":[
				0,
				-0.429999977350235,
				0
			]
		},
		{
			"children":[
				92
			],
			"name":"Plane.024",
			"rotation":[
				1,
				0,
				0,
				0
			],
			"scale":[
				116.62348175048828,
				116.76495361328125,
				100.16496276855469
			]
		},
		{
			"children":[
				93
			],
			"name":"RootNode.023",
			"rotation":[
				1,
				0,
				0,
				0
			]
		},
		{
			"children":[
				94
			],
			"name":"3b10cdb3970242c2a7740deef92936e8.fbx.023",
			"rotation":[
				1,
				0,
				0,
				0
			],
			"scale":[
				0.009999999776482582,
				0.009999999776482582,
				0.009999999776482582
			],
			"translation":[
				-2,
				0,
				0
			]
		},
		{
			"mesh":24,
			"name":"Plane.003_Material.004_0.024",
			"rotation":[
				0.7071068286895752,
				0,
				0,
				0.7071068286895752
			],
			"scale":[
				0.4300000071525574,
				0.4999999403953552,
				1
			],
			"translation":[
				0,
				-0.429999977350235,
				0
			]
		},
		{
			"children":[
				96
			],
			"name":"Plane.025",
			"rotation":[
				1,
				0,
				0,
				0
			],
			"scale":[
				116.62348175048828,
				116.76495361328125,
				100.16496276855469
			]
		},
		{
			"children":[
				97
			],
			"name":"RootNode.024",
			"rotation":[
				1,
				0,
				0,
				0
			]
		},
		{
			"children":[
				98
			],
			"name":"3b10cdb3970242c2a7740deef92936e8.fbx.024",
			"rotation":[
				1,
				0,
				0,
				0
			],
			"scale":[
				0.009999999776482582,
				0.009999999776482582,
				0.009999999776482582
			],
			"translation":[
				-2,
				0,
				1
			]
		},
		{
			"mesh":25,
			"name":"Plane.003_Material.004_0.025",
			"rotation":[
				0.7071068286895752,
				0,
				0,
				0.7071068286895752
			],
			"scale":[
				0.4300000071525574,
				0.4999999403953552,
				1
			],
			"translation":[
				0,
				-0.429999977350235,
				-1
			]
		},
		{
			"children":[
				100
			],
			"name":"Plane.026",
			"rotation":[
				1,
				0,
				0,
				0
			],
			"scale":[
				116.62348175048828,
				116.76495361328125,
				100.16496276855469
			]
		},
		{
			"children":[
				101
			],
			"name":"RootNode.025",
			"rotation":[
				1,
				0,
				0,
				0
			]
		},
		{
			"children":[
				102
			],
			"name":"3b10cdb3970242c2a7740deef92936e8.fbx.025",
			"rotation":[
				1,
				0,
				0,
				0
			],
			"scale":[
				0.009999999776482582,
				0.009999999776482582,
				0.009999999776482582
			],
			"translation":[
				-2,
				0,
				1
			]
		}
	],
	"materials":[
		{
			"doubleSided":true,
			"extensions":{
				"KHR_materials_specular":{
					"specularFactor":0
				}
			},
			"name":"Material.004",
			"pbrMetallicRoughness":{
				"baseColorTexture":{
					"index":0
				},
				"metallicFactor":0
			}
		},
		{
			"doubleSided":true,
			"extensions":{
				"KHR_materials_specular":{
					"specularFactor":0
				}
			},
			"name":"Material.017",
			"pbrMetallicRoughness":{
				"baseColorTexture":{
					"index":1
				},
				"metallicFactor":0
			}
		},
		{
			"doubleSided":true,
			"extensions":{
				"KHR_materials_specular":{
					"specularFactor":0
				}
			},
			"name":"Material.018",
			"pbrMetallicRoughness":{
				"baseColorTexture":{
					"index":2
				},
				"metallicFactor":0
			}
		},
		{
			"doubleSided":true,
			"extensions":{
				"KHR_materials_specular":{
					"specularFactor":0
				}
			},
			"name":"Material.019",
			"pbrMetallicRoughness":{
				"baseColorTexture":{
					"index":3
				},
				"metallicFactor":0
			}
		},
		{
			"doubleSided":true,
			"extensions":{
				"KHR_materials_specular":{
					"specularFactor":0
				}
			},
			"name":"Material.020",
			"pbrMetallicRoughness":{
				"baseColorTexture":{
					"index":4
				},
				"metallicFactor":0
			}
		},
		{
			"doubleSided":true,
			"extensions":{
				"KHR_materials_specular":{
					"specularFactor":0
				}
			},
			"name":"Material.021",
			"pbrMetallicRoughness":{
				"baseColorTexture":{
					"index":5
				},
				"metallicFactor":0
			}
		},
		{
			"doubleSided":true,
			"extensions":{
				"KHR_materials_specular":{
					"specularFactor":0
				}
			},
			"name":"Material.022",
			"pbrMetallicRoughness":{
				"baseColorTexture":{
					"index":6
				},
				"metallicFactor":0
			}
		},
		{
			"doubleSided":true,
			"extensions":{
				"KHR_materials_specular":{
					"specularFactor":0
				}
			},
			"name":"Material.023",
			"pbrMetallicRoughness":{
				"baseColorTexture":{
					"index":7
				},
				"metallicFactor":0
			}
		},
		{
			"doubleSided":true,
			"extensions":{
				"KHR_materials_specular":{
					"specularFactor":0
				}
			},
			"name":"Material.024",
			"pbrMetallicRoughness":{
				"baseColorTexture":{
					"index":8
				},
				"metallicFactor":0
			}
		},
		{
			"doubleSided":true,
			"extensions":{
				"KHR_materials_specular":{
					"specularFactor":0
				}
			},
			"name":"Material.025",
			"pbrMetallicRoughness":{
				"baseColorTexture":{
					"index":9
				},
				"metallicFactor":0
			}
		},
		{
			"doubleSided":true,
			"extensions":{
				"KHR_materials_specular":{
					"specularFactor":0
				}
			},
			"name":"Material.026",
			"pbrMetallicRoughness":{
				"baseColorTexture":{
					"index":10
				},
				"metallicFactor":0
			}
		},
		{
			"doubleSided":true,
			"extensions":{
				"KHR_materials_specular":{
					"specularFactor":0
				}
			},
			"name":"Material.027",
			"pbrMetallicRoughness":{
				"baseColorTexture":{
					"index":11
				},
				"metallicFactor":0
			}
		},
		{
			"doubleSided":true,
			"extensions":{
				"KHR_materials_specular":{
					"specularFactor":0
				}
			},
			"name":"Material.028",
			"pbrMetallicRoughness":{
				"baseColorTexture":{
					"index":12
				},
				"metallicFactor":0
			}
		},
		{
			"doubleSided":true,
			"extensions":{
				"KHR_materials_specular":{
					"specularFactor":0
				}
			},
			"name":"Material.029",
			"pbrMetallicRoughness":{
				"baseColorTexture":{
					"index":13
				},
				"metallicFactor":0
			}
		},
		{
			"doubleSided":true,
			"extensions":{
				"KHR_materials_specular":{
					"specularFactor":0
				}
			},
			"name":"Material.030",
			"pbrMetallicRoughness":{
				"baseColorTexture":{
					"index":14
				},
				"metallicFactor":0
			}
		},
		{
			"doubleSided":true,
			"extensions":{
				"KHR_materials_specular":{
					"specularFactor":0
				}
			},
			"name":"Material.031",
			"pbrMetallicRoughness":{
				"baseColorTexture":{
					"index":15
				},
				"metallicFactor":0
			}
		},
		{
			"doubleSided":true,
			"extensions":{
				"KHR_materials_specular":{
					"specularFactor":0
				}
			},
			"name":"Material.032",
			"pbrMetallicRoughness":{
				"baseColorTexture":{
					"index":16
				},
				"metallicFactor":0
			}
		},
		{
			"doubleSided":true,
			"extensions":{
				"KHR_materials_specular":{
					"specularFactor":0
				}
			},
			"name":"Material.033",
			"pbrMetallicRoughness":{
				"baseColorTexture":{
					"index":17
				},
				"metallicFactor":0
			}
		},
		{
			"doubleSided":true,
			"extensions":{
				"KHR_materials_specular":{
					"specularFactor":0
				}
			},
			"name":"Material.034",
			"pbrMetallicRoughness":{
				"baseColorTexture":{
					"index":18
				},
				"metallicFactor":0
			}
		},
		{
			"doubleSided":true,
			"extensions":{
				"KHR_materials_specular":{
					"specularFactor":0
				}
			},
			"name":"Material.035",
			"pbrMetallicRoughness":{
				"baseColorTexture":{
					"index":19
				},
				"metallicFactor":0
			}
		},
		{
			"doubleSided":true,
			"extensions":{
				"KHR_materials_specular":{
					"specularFactor":0
				}
			},
			"name":"Material.036",
			"pbrMetallicRoughness":{
				"baseColorTexture":{
					"index":20
				},
				"metallicFactor":0
			}
		},
		{
			"doubleSided":true,
			"extensions":{
				"KHR_materials_specular":{
					"specularFactor":0
				}
			},
			"name":"Material.037",
			"pbrMetallicRoughness":{
				"baseColorTexture":{
					"index":21
				},
				"metallicFactor":0
			}
		},
		{
			"doubleSided":true,
			"extensions":{
				"KHR_materials_specular":{
					"specularFactor":0
				}
			},
			"name":"Material.038",
			"pbrMetallicRoughness":{
				"baseColorTexture":{
					"index":22
				},
				"metallicFactor":0
			}
		},
		{
			"doubleSided":true,
			"extensions":{
				"KHR_materials_specular":{
					"specularFactor":0
				}
			},
			"name":"Material.039",
			"pbrMetallicRoughness":{
				"baseColorTexture":{
					"index":23
				},
				"metallicFactor":0
			}
		},
		{
			"doubleSided":true,
			"extensions":{
				"KHR_materials_specular":{
					"specularFactor":0
				}
			},
			"name":"Material.040",
			"pbrMetallicRoughness":{
				"baseColorTexture":{
					"index":24
				},
				"metallicFactor":0
			}
		},
		{
			"doubleSided":true,
			"extensions":{
				"KHR_materials_specular":{
					"specularFactor":0
				}
			},
			"name":"Material.041",
			"pbrMetallicRoughness":{
				"baseColorTexture":{
					"index":25
				},
				"metallicFactor":0
			}
		}
	],
	"meshes":[
		{
			"name":"Plane.003_Material.004_0",
			"primitives":[
				{
					"attributes":{
						"POSITION":0,
						"NORMAL":1,
						"TEXCOORD_0":2
					},
					"indices":3,
					"material":0
				}
			]
		},
		{
			"name":"Plane.003_Material.004_0.001",
			"primitives":[
				{
					"attributes":{
						"POSITION":4,
						"NORMAL":5,
						"TEXCOORD_0":6
					},
					"indices":3,
					"material":1
				}
			]
		},
		{
			"name":"Plane.003_Material.004_0.002",
			"primitives":[
				{
					"attributes":{
						"POSITION":7,
						"NORMAL":8,
						"TEXCOORD_0":9
					},
					"indices":3,
					"material":2
				}
			]
		},
		{
			"name":"Plane.003_Material.004_0.003",
			"primitives":[
				{
					"attributes":{
						"POSITION":10,
						"NORMAL":11,
						"TEXCOORD_0":12
					},
					"indices":3,
					"material":3
				}
			]
		},
		{
			"name":"Plane.003_Material.004_0.004",
			"primitives":[
				{
					"attributes":{
						"POSITION":13,
						"NORMAL":14,
						"TEXCOORD_0":15
					},
					"indices":3,
					"material":4
				}
			]
		},
		{
			"name":"Plane.003_Material.004_0.005",
			"primitives":[
				{
					"attributes":{
						"POSITION":16,
						"NORMAL":17,
						"TEXCOORD_0":18
					},
					"indices":3,
					"material":5
				}
			]
		},
		{
			"name":"Plane.003_Material.004_0.006",
			"primitives":[
				{
					"attributes":{
						"POSITION":19,
						"NORMAL":20,
						"TEXCOORD_0":21
					},
					"indices":3,
					"material":6
				}
			]
		},
		{
			"name":"Plane.003_Material.004_0.007",
			"primitives":[
				{
					"attributes":{
						"POSITION":22,
						"NORMAL":23,
						"TEXCOORD_0":24
					},
					"indices":3,
					"material":7
				}
			]
		},
		{
			"name":"Plane.003_Material.004_0.008",
			"primitives":[
				{
					"attributes":{
						"POSITION":25,
						"NORMAL":26,
						"TEXCOORD_0":27
					},
					"indices":3,
					"material":8
				}
			]
		},
		{
			"name":"Plane.003_Material.004_0.009",
			"primitives":[
				{
					"attributes":{
						"POSITION":28,
						"NORMAL":29,
						"TEXCOORD_0":30
					},
					"indices":3,
					"material":9
				}
			]
		},
		{
			"name":"Plane.003_Material.004_0.010",
			"primitives":[
				{
					"attributes":{
						"POSITION":31,
						"NORMAL":32,
						"TEXCOORD_0":33
					},
					"indices":3,
					"material":10
				}
			]
		},
		{
			"name":"Plane.003_Material.004_0.011",
			"primitives":[
				{
					"attributes":{
						"POSITION":34,
						"NORMAL":35,
						"TEXCOORD_0":36
					},
					"indices":3,
					"material":11
				}
			]
		},
		{
			"name":"Plane.003_Material.004_0.012",
			"primitives":[
				{
					"attributes":{
						"POSITION":37,
						"NORMAL":38,
						"TEXCOORD_0":39
					},
					"indices":3,
					"material":12
				}
			]
		},
		{
			"name":"Plane.003_Material.004_0.013",
			"primitives":[
				{
					"attributes":{
						"POSITION":40,
						"NORMAL":41,
						"TEXCOORD_0":42
					},
					"indices":3,
					"material":13
				}
			]
		},
		{
			"name":"Plane.003_Material.004_0.014",
			"primitives":[
				{
					"attributes":{
						"POSITION":43,
						"NORMAL":44,
						"TEXCOORD_0":45
					},
					"indices":3,
					"material":14
				}
			]
		},
		{
			"name":"Plane.003_Material.004_0.015",
			"primitives":[
				{
					"attributes":{
						"POSITION":46,
						"NORMAL":47,
						"TEXCOORD_0":48
					},
					"indices":3,
					"material":15
				}
			]
		},
		{
			"name":"Plane.003_Material.004_0.016",
			"primitives":[
				{
					"attributes":{
						"POSITION":49,
						"NORMAL":50,
						"TEXCOORD_0":51
					},
					"indices":3,
					"material":16
				}
			]
		},
		{
			"name":"Plane.003_Material.004_0.017",
			"primitives":[
				{
					"attributes":{
						"POSITION":52,
						"NORMAL":53,
						"TEXCOORD_0":54
					},
					"indices":3,
					"material":17
				}
			]
		},
		{
			"name":"Plane.003_Material.004_0.018",
			"primitives":[
				{
					"attributes":{
						"POSITION":55,
						"NORMAL":56,
						"TEXCOORD_0":57
					},
					"indices":3,
					"material":18
				}
			]
		},
		{
			"name":"Plane.003_Material.004_0.019",
			"primitives":[
				{
					"attributes":{
						"POSITION":58,
						"NORMAL":59,
						"TEXCOORD_0":60
					},
					"indices":3,
					"material":19
				}
			]
		},
		{
			"name":"Plane.003_Material.004_0.020",
			"primitives":[
				{
					"attributes":{
						"POSITION":61,
						"NORMAL":62,
						"TEXCOORD_0":63
					},
					"indices":3,
					"material":20
				}
			]
		},
		{
			"name":"Plane.003_Material.004_0.021",
			"primitives":[
				{
					"attributes":{
						"POSITION":64,
						"NORMAL":65,
						"TEXCOORD_0":66
					},
					"indices":3,
					"material":21
				}
			]
		},
		{
			"name":"Plane.003_Material.004_0.022",
			"primitives":[
				{
					"attributes":{
						"POSITION":67,
						"NORMAL":68,
						"TEXCOORD_0":69
					},
					"indices":3,
					"material":22
				}
			]
		},
		{
			"name":"Plane.003_Material.004_0.023",
			"primitives":[
				{
					"attributes":{
						"POSITION":70,
						"NORMAL":71,
						"TEXCOORD_0":72
					},
					"indices":3,
					"material":23
				}
			]
		},
		{
			"name":"Plane.003_Material.004_0.024",
			"primitives":[
				{
					"attributes":{
						"POSITION":73,
						"NORMAL":74,
						"TEXCOORD_0":75
					},
					"indices":3,
					"material":24
				}
			]
		},
		{
			"name":"Plane.003_Material.004_0.025",
			"primitives":[
				{
					"attributes":{
						"POSITION":76,
						"NORMAL":77,
						"TEXCOORD_0":78
					},
					"indices":3,
					"material":25
				}
			]
		}
	],
	"textures":[
		{
			"sampler":0,
			"source":0
		},
		{
			"sampler":0,
			"source":0
		},
		{
			"sampler":0,
			"source":0
		},
		{
			"sampler":0,
			"source":0
		},
		{
			"sampler":0,
			"source":0
		},
		{
			"sampler":0,
			"source":0
		},
		{
			"sampler":0,
			"source":0
		},
		{
			"sampler":0,
			"source":0
		},
		{
			"sampler":0,
			"source":0
		},
		{
			"sampler":0,
			"source":0
		},
		{
			"sampler":0,
			"source":0
		},
		{
			"sampler":0,
			"source":0
		},
		{
			"sampler":0,
			"source":0
		},
		{
			"sampler":0,
			"source":0
		},
		{
			"sampler":0,
			"source":0
		},
		{
			"sampler":0,
			"source":0
		},
		{
			"sampler":0,
			"source":0
		},
		{
			"sampler":0,
			"source":0
		},
		{
			"sampler":0,
			"source":0
		},
		{
			"sampler":0,
			"source":0
		},
		{
			"sampler":0,
			"source":0
		},
		{
			"sampler":0,
			"source":0
		},
		{
			"sampler":0,
			"source":0
		},
		{
			"sampler":0,
			"source":0
		},
		{
			"sampler":0,
			"source":0
		},
		{
			"sampler":0,
			"source":0
		}
	],
	"images":[
		{
			"mimeType":"image/png",
			"name":"Material.004_baseColor",
			"uri":"Material_004_baseColor.png"
		}
	],
	"accessors":[
		{
			"bufferView":0,
			"componentType":5126,
			"count":4,
			"max":[
				1,
				1,
				0
			],
			"min":[
				-1,
				-1,
				0
			],
			"type":"VEC3"
		},
		{
			"bufferView":1,
			"componentType":5126,
			"count":4,
			"type":"VEC3"
		},
		{
			"bufferView":2,
			"componentType":5126,
			"count":4,
			"type":"VEC2"
		},
		{
			"bufferView":3,
			"componentType":5123,
			"count":6,
			"type":"SCALAR"
		},
		{
			"bufferView":4,
			"componentType":5126,
			"count":4,
			"max":[
				1,
				1,
				0
			],
			"min":[
				-1,
				-1,
				0
			],
			"type":"VEC3"
		},
		{
			"bufferView":5,
			"componentType":5126,
			"count":4,
			"type":"VEC3"
		},
		{
			"bufferView":6,
			"componentType":5126,
			"count":4,
			"type":"VEC2"
		},
		{
			"bufferView":7,
			"componentType":5126,
			"count":4,
			"max":[
				1,
				1,
				0
			],
			"min":[
				-1,
				-1,
				0
			],
			"type":"VEC3"
		},
		{
			"bufferView":8,
			"componentType":5126,
			"count":4,
			"type":"VEC3"
		},
		{
			"bufferView":9,
			"componentType":5126,
			"count":4,
			"type":"VEC2"
		},
		{
			"bufferView":10,
			"componentType":5126,
			"count":4,
			"max":[
				1,
				1,
				0
			],
			"min":[
				-1,
				-1,
				0
			],
			"type":"VEC3"
		},
		{
			"bufferView":11,
			"componentType":5126,
			"count":4,
			"type":"VEC3"
		},
		{
			"bufferView":12,
			"componentType":5126,
			"count":4,
			"type":"VEC2"
		},
		{
			"bufferView":13,
			"componentType":5126,
			"count":4,
			"max":[
				1,
				1,
				0
			],
			"min":[
				-1,
				-1,
				0
			],
			"type":"VEC3"
		},
		{
			"bufferView":14,
			"componentType":5126,
			"count":4,
			"type":"VEC3"
		},
		{
			"bufferView":15,
			"componentType":5126,
			"count":4,
			"type":"VEC2"
		},
		{
			"bufferView":16,
			"componentType":5126,
			"count":4,
			"max":[
				1,
				1,
				0
			],
			"min":[
				-1,
				-1,
				0
			],
			"type":"VEC3"
		},
		{
			"bufferView":17,
			"componentType":5126,
			"count":4,
			"type":"VEC3"
		},
		{
			"bufferView":18,
			"componentType":5126,
			"count":4,
			"type":"VEC2"
		},
		{
			"bufferView":19,
			"componentType":5126,
			"count":4,
			"max":[
				1,
				1,
				0
			],
			"min":[
				-1,
				-1,
				0
			],
			"type":"VEC3"
		},
		{
			"bufferView":20,
			"componentType":5126,
			"count":4,
			"type":"VEC3"
		},
		{
			"bufferView":21,
			"componentType":5126,
			"count":4,
			"type":"VEC2"
		},
		{
			"bufferView":22,
			"componentType":5126,
			"count":4,
			"max":[
				1,
				1,
				0
			],
			"min":[
				-1,
				-1,
				0
			],
			"type":"VEC3"
		},
		{
			"bufferView":23,
			"componentType":5126,
			"count":4,
			"type":"VEC3"
		},
		{
			"bufferView":24,
			"componentType":5126,
			"count":4,
			"type":"VEC2"
		},
		{
			"bufferView":25,
			"componentType":5126,
			"count":4,
			"max":[
				1,
				1,
				0
			],
			"min":[
				-1,
				-1,
				0
			],
			"type":"VEC3"
		},
		{
			"bufferView":26,
			"componentType":5126,
			"count":4,
			"type":"VEC3"
		},
		{
			"bufferView":27,
			"componentType":5126,
			"count":4,
			"type":"VEC2"
		},
		{
			"bufferView":28,
			"componentType":5126,
			"count":4,
			"max":[
				1,
				1,
				0
			],
			"min":[
				-1,
				-1,
				0
			],
			"type":"VEC3"
		},
		{
			"bufferView":29,
			"componentType":5126,
			"count":4,
			"type":"VEC3"
		},
		{
			"bufferView":30,
			"componentType":5126,
			"count":4,
			"type":"VEC2"
		},
		{
			"bufferView":31,
			"componentType":5126,
			"count":4,
			"max":[
				1,
				1,
				0
			],
			"min":[
				-1,
				-1,
				0
			],
			"type":"VEC3"
		},
		{
			"bufferView":32,
			"componentType":5126,
			"count":4,
			"type":"VEC3"
		},
		{
			"bufferView":33,
			"componentType":5126,
			"count":4,
			"type":"VEC2"
		},
		{
			"bufferView":34,
			"componentType":5126,
			"count":4,
			"max":[
				1,
				1,
				0
			],
			"min":[
				-1,
				-1,
				0
			],
			"type":"VEC3"
		},
		{
			"bufferView":35,
			"componentType":5126,
			"count":4,
			"type":"VEC3"
		},
		{
			"bufferView":36,
			"componentType":5126,
			"count":4,
			"type":"VEC2"
		},
		{
			"bufferView":37,
			"componentType":5126,
			"count":4,
			"max":[
				1,
				1,
				0
			],
			"min":[
				-1,
				-1,
				0
			],
			"type":"VEC3"
		},
		{
			"bufferView":38,
			"componentType":5126,
			"count":4,
			"type":"VEC3"
		},
		{
			"bufferView":39,
			"componentType":5126,
			"count":4,
			"type":"VEC2"
		},
		{
			"bufferView":40,
			"componentType":5126,
			"count":4,
			"max":[
				1,
				1,
				0
			],
			"min":[
				-1,
				-1,
				0
			],
			"type":"VEC3"
		},
		{
			"bufferView":41,
			"componentType":5126,
			"count":4,
			"type":"VEC3"
		},
		{
			"bufferView":42,
			"componentType":5126,
			"count":4,
			"type":"VEC2"
		},
		{
			"bufferView":43,
			"componentType":5126,
			"count":4,
			"max":[
				1,
				1,
				0
			],
			"min":[
				-1,
				-1,
				0
			],
			"type":"VEC3"
		},
		{
			"bufferView":44,
			"componentType":5126,
			"count":4,
			"type":"VEC3"
		},
		{
			"bufferView":45,
			"componentType":5126,
			"count":4,
			"type":"VEC2"
		},
		{
			"bufferView":46,
			"componentType":5126,
			"count":4,
			"max":[
				1,
				1,
				0
			],
			"min":[
				-1,
				-1,
				0
			],
			"type":"VEC3"
		},
		{
			"bufferView":47,
			"componentType":5126,
			"count":4,
			"type":"VEC3"
		},
		{
			"bufferView":48,
			"componentType":5126,
			"count":4,
			"type":"VEC2"
		},
		{
			"bufferView":49,
			"componentType":5126,
			"count":4,
			"max":[
				1,
				1,
				0
			],
			"min":[
				-1,
				-1,
				0
			],
			"type":"VEC3"
		},
		{
			"bufferView":50,
			"componentType":5126,
			"count":4,
			"type":"VEC3"
		},
		{
			"bufferView":51,
			"componentType":5126,
			"count":4,
			"type":"VEC2"
		},
		{
			"bufferView":52,
			"componentType":5126,
			"count":4,
			"max":[
				1,
				1,
				0
			],
			"min":[
				-1,
				-1,
				0
			],
			"type":"VEC3"
		},
		{
			"bufferView":53,
			"componentType":5126,
			"count":4,
			"type":"VEC3"
		},
		{
			"bufferView":54,
			"componentType":5126,
			"count":4,
			"type":"VEC2"
		},
		{
			"bufferView":55,
			"componentType":5126,
			"count":4,
			"max":[
				1,
				1,
				0
			],
			"min":[
				-1,
				-1,
				0
			],
			"type":"VEC3"
		},
		{
			"bufferView":56,
			"componentType":5126,
			"count":4,
			"type":"VEC3"
		},
		{
			"bufferView":57,
			"componentType":5126,
			"count":4,
			"type":"VEC2"
		},
		{
			"bufferView":58,
			"componentType":5126,
			"count":4,
			"max":[
				1,
				1,
				0
			],
			"min":[
				-1,
				-1,
				0
			],
			"type":"VEC3"
		},
		{
			"bufferView":59,
			"componentType":5126,
			"count":4,
			"type":"VEC3"
		},
		{
			"bufferView":60,
			"componentType":5126,
			"count":4,
			"type":"VEC2"
		},
		{
			"bufferView":61,
			"componentType":5126,
			"count":4,
			"max":[
				1,
				1,
				0
			],
			"min":[
				-1,
				-1,
				0
			],
			"type":"VEC3"
		},
		{
			"bufferView":62,
			"componentType":5126,
			"count":4,
			"type":"VEC3"
		},
		{
			"bufferView":63,
			"componentType":5126,
			"count":4,
			"type":"VEC2"
		},
		{
			"bufferView":64,
			"componentType":5126,
			"count":4,
			"max":[
				1,
				1,
				0
			],
			"min":[
				-1,
				-1,
				0
			],
			"type":"VEC3"
		},
		{
			"bufferView":65,
			"componentType":5126,
			"count":4,
			"type":"VEC3"
		},
		{
			"bufferView":66,
			"componentType":5126,
			"count":4,
			"type":"VEC2"
		},
		{
			"bufferView":67,
			"componentType":5126,
			"count":4,
			"max":[
				1,
				1,
				0
			],
			"min":[
				-1,
				-1,
				0
			],
			"type":"VEC3"
		},
		{
			"bufferView":68,
			"componentType":5126,
			"count":4,
			"type":"VEC3"
		},
		{
			"bufferView":69,
			"componentType":5126,
			"count":4,
			"type":"VEC2"
		},
		{
			"bufferView":70,
			"componentType":5126,
			"count":4,
			"max":[
				1,
				1,
				0
			],
			"min":[
				-1,
				-1,
				0
			],
			"type":"VEC3"
		},
		{
			"bufferView":71,
			"componentType":5126,
			"count":4,
			"type":"VEC3"
		},
		{
			"bufferView":72,
			"componentType":5126,
			"count":4,
			"type":"VEC2"
		},
		{
			"bufferView":73,
			"componentType":5126,
			"count":4,
			"max":[
				1,
				1,
				0
			],
			"min":[
				-1,
				-1,
				0
			],
			"type":"VEC3"
		},
		{
			"bufferView":74,
			"componentType":5126,
			"count":4,
			"type":"VEC3"
		},
		{
			"bufferView":75,
			"componentType":5126,
			"count":4,
			"type":"VEC2"
		},
		{
			"bufferView":76,
			"componentType":5126,
			"count":4,
			"max":[
				1,
				1,
				0
			],
			"min":[
				-1,
				-1,
				0
			],
			"type":"VEC3"
		},
		{
			"bufferView":77,
			"componentType":5126,
			"count":4,
			"type":"VEC3"
		},
		{
			"bufferView":78,
			"componentType":5126,
			"count":4,
			"type":"VEC2"
		}
	],
	"bufferViews":[
		{
			"buffer":0,
			"byteLength":48,
			"byteOffset":0,
			"target":34962
		},
		{
			"buffer":0,
			"byteLength":48,
			"byteOffset":48,
			"target":34962
		},
		{
			"buffer":0,
			"byteLength":32,
			"byteOffset":96,
			"target":34962
		},
		{
			"buffer":0,
			"byteLength":12,
			"byteOffset":128,
			"target":34963
		},
		{
			"buffer":0,
			"byteLength":48,
			"byteOffset":140,
			"target":34962
		},
		{
			"buffer":0,
			"byteLength":48,
			"byteOffset":188,
			"target":34962
		},
		{
			"buffer":0,
			"byteLength":32,
			"byteOffset":236,
			"target":34962
		},
		{
			"buffer":0,
			"byteLength":48,
			"byteOffset":268,
			"target":34962
		},
		{
			"buffer":0,
			"byteLength":48,
			"byteOffset":316,
			"target":34962
		},
		{
			"buffer":0,
			"byteLength":32,
			"byteOffset":364,
			"target":34962
		},
		{
			"buffer":0,
			"byteLength":48,
			"byteOffset":396,
			"target":34962
		},
		{
			"buffer":0,
			"byteLength":48,
			"byteOffset":444,
			"target":34962
		},
		{
			"buffer":0,
			"byteLength":32,
			"byteOffset":492,
			"target":34962
		},
		{
			"buffer":0,
			"byteLength":48,
			"byteOffset":524,
			"target":34962
		},
		{
			"buffer":0,
			"byteLength":48,
			"byteOffset":572,
			"target":34962
		},
		{
			"buffer":0,
			"byteLength":32,
			"byteOffset":620,
			"target":34962
		},
		{
			"buffer":0,
			"byteLength":48,
			"byteOffset":652,
			"target":34962
		},
		{
			"buffer":0,
			"byteLength":48,
			"byteOffset":700,
			"target":34962
		},
		{
			"buffer":0,
			"byteLength":32,
			"byteOffset":748,
			"target":34962
		},
		{
			"buffer":0,
			"byteLength":48,
			"byteOffset":780,
			"target":34962
		},
		{
			"buffer":0,
			"byteLength":48,
			"byteOffset":828,
			"target":34962
		},
		{
			"buffer":0,
			"byteLength":32,
			"byteOffset":876,
			"target":34962
		},
		{
			"buffer":0,
			"byteLength":48,
			"byteOffset":908,
			"target":34962
		},
		{
			"buffer":0,
			"byteLength":48,
			"byteOffset":956,
			"target":34962
		},
		{
			"buffer":0,
			"byteLength":32,
			"byteOffset":1004,
			"target":34962
		},
		{
			"buffer":0,
			"byteLength":48,
			"byteOffset":1036,
			"target":34962
		},
		{
			"buffer":0,
			"byteLength":48,
			"byteOffset":1084,
			"target":34962
		},
		{
			"buffer":0,
			"byteLength":32,
			"byteOffset":1132,
			"target":34962
		},
		{
			"buffer":0,
			"byteLength":48,
			"byteOffset":1164,
			"target":34962
		},
		{
			"buffer":0,
			"byteLength":48,
			"byteOffset":1212,
			"target":34962
		},
		{
			"buffer":0,
			"byteLength":32,
			"byteOffset":1260,
			"target":34962
		},
		{
			"buffer":0,
			"byteLength":48,
			"byteOffset":1292,
			"target":34962
		},
		{
			"buffer":0,
			"byteLength":48,
			"byteOffset":1340,
			"target":34962
		},
		{
			"buffer":0,
			"byteLength":32,
			"byteOffset":1388,
			"target":34962
		},
		{
			"buffer":0,
			"byteLength":48,
			"byteOffset":1420,
			"target":34962
		},
		{
			"buffer":0,
			"byteLength":48,
			"byteOffset":1468,
			"target":34962
		},
		{
			"buffer":0,
			"byteLength":32,
			"byteOffset":1516,
			"target":34962
		},
		{
			"buffer":0,
			"byteLength":48,
			"byteOffset":1548,
			"target":34962
		},
		{
			"buffer":0,
			"byteLength":48,
			"byteOffset":1596,
			"target":34962
		},
		{
			"buffer":0,
			"byteLength":32,
			"byteOffset":1644,
			"target":34962
		},
		{
			"buffer":0,
			"byteLength":48,
			"byteOffset":1676,
			"target":34962
		},
		{
			"buffer":0,
			"byteLength":48,
			"byteOffset":1724,
			"target":34962
		},
		{
			"buffer":0,
			"byteLength":32,
			"byteOffset":1772,
			"target":34962
		},
		{
			"buffer":0,
			"byteLength":48,
			"byteOffset":1804,
			"target":34962
		},
		{
			"buffer":0,
			"byteLength":48,
			"byteOffset":1852,
			"target":34962
		},
		{
			"buffer":0,
			"byteLength":32,
			"byteOffset":1900,
			"target":34962
		},
		{
			"buffer":0,
			"byteLength":48,
			"byteOffset":1932,
			"target":34962
		},
		{
			"buffer":0,
			"byteLength":48,
			"byteOffset":1980,
			"target":34962
		},
		{
			"buffer":0,
			"byteLength":32,
			"byteOffset":2028,
			"target":34962
		},
		{
			"buffer":0,
			"byteLength":48,
			"byteOffset":2060,
			"target":34962
		},
		{
			"buffer":0,
			"byteLength":48,
			"byteOffset":2108,
			"target":34962
		},
		{
			"buffer":0,
			"byteLength":32,
			"byteOffset":2156,
			"target":34962
		},
		{
			"buffer":0,
			"byteLength":48,
			"byteOffset":2188,
			"target":34962
		},
		{
			"buffer":0,
			"byteLength":48,
			"byteOffset":2236,
			"target":34962
		},
		{
			"buffer":0,
			"byteLength":32,
			"byteOffset":2284,
			"target":34962
		},
		{
			"buffer":0,
			"byteLength":48,
			"byteOffset":2316,
			"target":34962
		},
		{
			"buffer":0,
			"byteLength":48,
			"byteOffset":2364,
			"target":34962
		},
		{
			"buffer":0,
			"byteLength":32,
			"byteOffset":2412,
			"target":34962
		},
		{
			"buffer":0,
			"byteLength":48,
			"byteOffset":2444,
			"target":34962
		},
		{
			"buffer":0,
			"byteLength":48,
			"byteOffset":2492,
			"target":34962
		},
		{
			"buffer":0,
			"byteLength":32,
			"byteOffset":2540,
			"target":34962
		},
		{
			"buffer":0,
			"byteLength":48,
			"byteOffset":2572,
			"target":34962
		},
		{
			"buffer":0,
			"byteLength":48,
			"byteOffset":2620,
			"target":34962
		},
		{
			"buffer":0,
			"byteLength":32,
			"byteOffset":2668,
			"target":34962
		},
		{
			"buffer":0,
			"byteLength":48,
			"byteOffset":2700,
			"target":34962
		},
		{
			"buffer":0,
			"byteLength":48,
			"byteOffset":2748,
			"target":34962
		},
		{
			"buffer":0,
			"byteLength":32,
			"byteOffset":2796,
			"target":34962
		},
		{
			"buffer":0,
			"byteLength":48,
			"byteOffset":2828,
			"target":34962
		},
		{
			"buffer":0,
			"byteLength":48,
			"byteOffset":2876,
			"target":34962
		},
		{
			"buffer":0,
			"byteLength":32,
			"byteOffset":2924,
			"target":34962
		},
		{
			"buffer":0,
			"byteLength":48,
			"byteOffset":2956,
			"target":34962
		},
		{
			"buffer":0,
			"byteLength":48,
			"byteOffset":3004,
			"target":34962
		},
		{
			"buffer":0,
			"byteLength":32,
			"byteOffset":3052,
			"target":34962
		},
		{
			"buffer":0,
			"byteLength":48,
			"byteOffset":3084,
			"target":34962
		},
		{
			"buffer":0,
			"byteLength":48,
			"byteOffset":3132,
			"target":34962
		},
		{
			"buffer":0,
			"byteLength":32,
			"byteOffset":3180,
			"target":34962
		},
		{
			"buffer":0,
			"byteLength":48,
			"byteOffset":3212,
			"target":34962
		},
		{
			"buffer":0,
			"byteLength":48,
			"byteOffset":3260,
			"target":34962
		},
		{
			"buffer":0,
			"byteLength":32,
			"byteOffset":3308,
			"target":34962
		}
	],
	"samplers":[
		{
			"magFilter":9729,
			"minFilter":9987
		}
	],
	"buffers":[
		{
			"byteLength":3340,
			"uri":"brick.bin"
		}
	]
}
