{
	"asset":{
		"generator":"Khronos glTF Blender I/O v4.1.63",
		"version":"2.0"
	},
	"scene":0,
	"scenes":[
		{
			"name":"Scene",
			"nodes":[
				6
			]
		}
	],
	"nodes":[
		{
			"mesh":0,
			"name":"ground_0"
		},
		{
			"mesh":1,
			"name":"ground_0.001"
		},
		{
			"children":[
				0,
				1
			],
			"name":"ground"
		},
		{
			"name":"Hemi.001"
		},
		{
			"children":[
				3
			],
			"name":"Hemi",
			"translation":[
				0,
				5.867959976196289,
				0
			]
		},
		{
			"children":[
				2,
				4
			],
			"name":"Root"
		},
		{
			"children":[
				5
			],
			"name":"Sketchfab_model",
			"rotation":[
				-0.70710688829422,
				0,
				0,
				0.7071066498756409
			]
		}
	],
	"materials":[
		{
			"doubleSided":true,
			"name":"ground",
			"normalTexture":{
				"index":0,
				"texCoord":2
			},
			"occlusionTexture":{
				"index":1
			},
			"pbrMetallicRoughness":{
				"baseColorTexture":{
					"index":2
				},
				"metallicFactor":0.14805640280246735,
				"metallicRoughnessTexture":{
					"index":1,
					"texCoord":1
				}
			}
		}
	],
	"meshes":[
		{
			"name":"ground_0",
			"primitives":[
				{
					"attributes":{
						"POSITION":0,
						"NORMAL":1,
						"TEXCOORD_0":2,
						"TEXCOORD_1":3,
						"TEXCOORD_2":4,
						"TEXCOORD_3":5
					},
					"indices":6,
					"material":0
				}
			]
		},
		{
			"name":"ground_0.001",
			"primitives":[
				{
					"attributes":{
						"POSITION":7,
						"NORMAL":8,
						"TEXCOORD_0":9,
						"TEXCOORD_1":10,
						"TEXCOORD_2":11,
						"TEXCOORD_3":12
					},
					"indices":13,
					"material":0
				}
			]
		}
	],
	"textures":[
		{
			"sampler":0,
			"source":0
		},
		{
			"sampler":0,
			"source":1
		},
		{
			"sampler":0,
			"source":2
		}
	],
	"images":[
		{
			"mimeType":"image/png",
			"name":"ground_normal",
			"uri":"ground_normal.png"
		},
		{
			"mimeType":"image/png",
			"name":"ground_metallicRoughness",
			"uri":"ground_metallicRoughness.png"
		},
		{
			"mimeType":"image/png",
			"name":"ground_baseColor",
			"uri":"ground_baseColor.png"
		}
	],
	"accessors":[
		{
			"bufferView":0,
			"componentType":5126,
			"count":65924,
			"max":[
				9.994050025939941,
				9.282549858093262,
				0.32589998841285706
			],
			"min":[
				-9.422060012817383,
				-8.864520072937012,
				-0.26475998759269714
			],
			"type":"VEC3"
		},
		{
			"bufferView":1,
			"componentType":5126,
			"count":65924,
			"type":"VEC3"
		},
		{
			"bufferView":2,
			"componentType":5126,
			"count":65924,
			"type":"VEC2"
		},
		{
			"bufferView":3,
			"componentType":5126,
			"count":65924,
			"type":"VEC2"
		},
		{
			"bufferView":4,
			"componentType":5126,
			"count":65924,
			"type":"VEC2"
		},
		{
			"bufferView":5,
			"componentType":5126,
			"count":65924,
			"type":"VEC2"
		},
		{
			"bufferView":6,
			"componentType":5125,
			"count":341817,
			"type":"SCALAR"
		},
		{
			"bufferView":7,
			"componentType":5126,
			"count":50412,
			"max":[
				9.994050025939941,
				9.047100067138672,
				0.32589998841285706
			],
			"min":[
				-9.422060012817383,
				-8.864520072937012,
				-0.26475998759269714
			],
			"type":"VEC3"
		},
		{
			"bufferView":8,
			"componentType":5126,
			"count":50412,
			"type":"VEC3"
		},
		{
			"bufferView":9,
			"componentType":5126,
			"count":50412,
			"type":"VEC2"
		},
		{
			"bufferView":10,
			"componentType":5126,
			"count":50412,
			"type":"VEC2"
		},
		{
			"bufferView":11,
			"componentType":5126,
			"count":50412,
			"type":"VEC2"
		},
		{
			"bufferView":12,
			"componentType":5126,
			"count":50412,
			"type":"VEC2"
		},
		{
			"bufferView":13,
			"componentType":5123,
			"count":268356,
			"type":"SCALAR"
		}
	],
	"bufferViews":[
		{
			"buffer":0,
			"byteLength":791088,
			"byteOffset":0,
			"target":34962
		},
		{
			"buffer":0,
			"byteLength":791088,
			"byteOffset":791088,
			"target":34962
		},
		{
			"buffer":0,
			"byteLength":527392,
			"byteOffset":1582176,
			"target":34962
		},
		{
			"buffer":0,
			"byteLength":527392,
			"byteOffset":2109568,
			"target":34962
		},
		{
			"buffer":0,
			"byteLength":527392,
			"byteOffset":2636960,
			"target":34962
		},
		{
			"buffer":0,
			"byteLength":527392,
			"byteOffset":3164352,
			"target":34962
		},
		{
			"buffer":0,
			"byteLength":1367268,
			"byteOffset":3691744,
			"target":34963
		},
		{
			"buffer":0,
			"byteLength":604944,
			"byteOffset":5059012,
			"target":34962
		},
		{
			"buffer":0,
			"byteLength":604944,
			"byteOffset":5663956,
			"target":34962
		},
		{
			"buffer":0,
			"byteLength":403296,
			"byteOffset":6268900,
			"target":34962
		},
		{
			"buffer":0,
			"byteLength":403296,
			"byteOffset":6672196,
			"target":34962
		},
		{
			"buffer":0,
			"byteLength":403296,
			"byteOffset":7075492,
			"target":34962
		},
		{
			"buffer":0,
			"byteLength":403296,
			"byteOffset":7478788,
			"target":34962
		},
		{
			"buffer":0,
			"byteLength":536712,
			"byteOffset":7882084,
			"target":34963
		}
	],
	"samplers":[
		{
			"magFilter":9729,
			"minFilter":9987
		}
	],
	"buffers":[
		{
			"byteLength":8418796,
			"uri":"moss.bin"
		}
	]
}
