{
  "accessors": [
    {
      "bufferView": 2,
      "componentType": 5126,
      "count": 8273,
      "max": [
        4.337149143218994,
        2.017426013946533,
        5.708045959472656
      ],
      "min": [
        -4.337141990661621,
        -1.9469980001449585,
        -0.04021399840712547
      ],
      "type": "VEC3"
    },
    {
      "bufferView": 2,
      "byteOffset": 99276,
      "componentType": 5126,
      "count": 8273,
      "max": [
        1.0,
        1.0,
        1.0
      ],
      "min": [
        -1.0,
        -1.0,
        -1.0
      ],
      "type": "VEC3"
    },
    {
      "bufferView": 1,
      "componentType": 5126,
      "count": 8273,
      "max": [
        0.9868159890174866,
        0.9980469942092896
      ],
      "min": [
        -0.6669920086860657,
        0.004532000049948692
      ],
      "type": "VEC2"
    },
    {
      "bufferView": 0,
      "componentType": 5125,
      "count": 16284,
      "type": "SCALAR"
    },
    {
      "bufferView": 2,
      "byteOffset": 198552,
      "componentType": 5126,
      "count": 1566,
      "max": [
        2.538990020751953,
        2.2451250553131104,
        6.456908226013184
      ],
      "min": [
        -2.5389809608459473,
        -1.8185679912567139,
        0.29547199606895447
      ],
      "type": "VEC3"
    },
    {
      "bufferView": 2,
      "byteOffset": 217344,
      "componentType": 5126,
      "count": 1566,
      "max": [
        0.9996868968009949,
        0.9999898672103882,
        0.999943733215332
      ],
      "min": [
        -0.9996818900108337,
        -1.0,
        -0.9802287220954895
      ],
      "type": "VEC3"
    },
    {
      "bufferView": 1,
      "byteOffset": 66184,
      "componentType": 5126,
      "count": 1566,
      "max": [
        0.9946290254592896,
        0.9941409826278687
      ],
      "min": [
        0.007499999832361937,
        0.004002000205218792
      ],
      "type": "VEC2"
    },
    {
      "bufferView": 0,
      "byteOffset": 65136,
      "componentType": 5125,
      "count": 4296,
      "type": "SCALAR"
    },
    {
      "bufferView": 2,
      "byteOffset": 236136,
      "componentType": 5126,
      "count": 425,
      "max": [
        1.607862949371338,
        1.5600650310516357,
        1.0757360458374023
      ],
      "min": [
        -1.6078720092773438,
        -1.207237958908081,
        0.24790099263191223
      ],
      "type": "VEC3"
    },
    {
      "bufferView": 2,
      "byteOffset": 241236,
      "componentType": 5126,
      "count": 425,
      "max": [
        0.9893186688423157,
        0.9985865354537964,
        0.021099889650940895
      ],
      "min": [
        -0.9893082976341248,
        -0.994088351726532,
        -0.9999958276748657
      ],
      "type": "VEC3"
    },
    {
      "bufferView": 1,
      "byteOffset": 78712,
      "componentType": 5126,
      "count": 425,
      "max": [
        0.9272459745407104,
        0.8111670017242432
      ],
      "min": [
        0.09582500159740448,
        0.08044499903917313
      ],
      "type": "VEC2"
    },
    {
      "bufferView": 0,
      "byteOffset": 82320,
      "componentType": 5125,
      "count": 1122,
      "type": "SCALAR"
    }
  ],
  "asset": {
    "extras": {
      "author": "Sonic, Minions and McQueen (https://sketchfab.com/cars45)",
      "license": "CC-BY-NC-4.0 (http://creativecommons.org/licenses/by-nc/4.0/)",
      "source": "https://sketchfab.com/3d-models/minion-rush-ghost-minion-001583d54c7c48a08c50be70afb38978",
      "title": "Minion Rush - Ghost Minion"
    },
    "generator": "Sketchfab-17.26.0",
    "version": "2.0"
  },
  "bufferViews": [
    {
      "buffer": 0,
      "byteLength": 86808,
      "name": "floatBufferViews",
      "target": 34963
    },
    {
      "buffer": 0,
      "byteLength": 82112,
      "byteOffset": 86808,
      "byteStride": 8,
      "name": "floatBufferViews",
      "target": 34962
    },
    {
      "buffer": 0,
      "byteLength": 246336,
      "byteOffset": 168920,
      "byteStride": 12,
      "name": "floatBufferViews",
      "target": 34962
    }
  ],
  "buffers": [
    {
      "byteLength": 415256,
      "uri": "scene.bin"
    }
  ],
  "images": [
    {
      "uri": "textures/Materiale.002_baseColor.png"
    },
    {
      "uri": "textures/Materiale.003_baseColor.png"
    },
    {
      "uri": "textures/Materiale.004_baseColor.png"
    }
  ],
  "materials": [
    {
      "doubleSided": true,
      "name": "Materiale.002",
      "pbrMetallicRoughness": {
        "baseColorTexture": {
          "index": 0
        },
        "metallicFactor": 0.0,
        "roughnessFactor": 0.8011823178082373
      }
    },
    {
      "doubleSided": true,
      "name": "Materiale.003",
      "pbrMetallicRoughness": {
        "baseColorTexture": {
          "index": 1
        },
        "metallicFactor": 0.0,
        "roughnessFactor": 0.8011823178082373
      }
    },
    {
      "doubleSided": true,
      "name": "Materiale.004",
      "pbrMetallicRoughness": {
        "baseColorTexture": {
          "index": 2
        },
        "metallicFactor": 0.0,
        "roughnessFactor": 0.8011823178082373
      }
    }
  ],
  "meshes": [
    {
      "name": "Object_0",
      "primitives": [
        {
          "attributes": {
            "NORMAL": 1,
            "POSITION": 0,
            "TEXCOORD_0": 2
          },
          "indices": 3,
          "material": 0,
          "mode": 4
        }
      ]
    },
    {
      "name": "Object_1",
      "primitives": [
        {
          "attributes": {
            "NORMAL": 5,
            "POSITION": 4,
            "TEXCOORD_0": 6
          },
          "indices": 7,
          "material": 1,
          "mode": 4
        }
      ]
    },
    {
      "name": "Object_2",
      "primitives": [
        {
          "attributes": {
            "NORMAL": 9,
            "POSITION": 8,
            "TEXCOORD_0": 10
          },
          "indices": 11,
          "material": 2,
          "mode": 4
        }
      ]
    }
  ],
  "nodes": [
    {
      "children": [
        1
      ],
      "matrix": [
        1.0,
        0.0,
        0.0,
        0.0,
        0.0,
        2.220446049250313e-16,
        -1.0,
        0.0,
        0.0,
        1.0,
        2.220446049250313e-16,
        0.0,
        0.0,
        0.0,
        0.0,
        1.0
      ],
      "name": "Sketchfab_model"
    },
    {
      "children": [
        2,
        3,
        4
      ],
      "name": "mc_ghost.obj.cleaner.materialmerger.gles"
    },
    {
      "mesh": 0,
      "name": "Object_2"
    },
    {
      "mesh": 1,
      "name": "Object_3"
    },
    {
      "mesh": 2,
      "name": "Object_4"
    }
  ],
  "samplers": [
    {
      "magFilter": 9729,
      "minFilter": 9987,
      "wrapS": 10497,
      "wrapT": 10497
    }
  ],
  "scene": 0,
  "scenes": [
    {
      "name": "Sketchfab_Scene",
      "nodes": [
        0
      ]
    }
  ],
  "textures": [
    {
      "sampler": 0,
      "source": 0
    },
    {
      "sampler": 0,
      "source": 1
    },
    {
      "sampler": 0,
      "source": 2
    }
  ]
}
